<?xml version="1.0" standalone="no"?>
<!DOCTYPE svg PUBLIC "-//W3C//DTD SVG 20010904//EN"
 "http://www.w3.org/TR/2001/REC-SVG-20010904/DTD/svg10.dtd">
<svg version="1.0" xmlns="http://www.w3.org/2000/svg"
 width="2400.000000pt" height="1204.000000pt" viewBox="0 0 2400.000000 1204.000000"
 preserveAspectRatio="xMidYMid meet">

<g transform="translate(0.000000,1204.000000) scale(0.100000,-0.100000)"
fill="#000000" stroke="none">
<path d="M4000 8471 l0 -2749 63 -7 c34 -3 148 -5 252 -3 l190 3 2 2753 3
2752 -255 0 -255 0 0 -2749z"/>
<path d="M8980 8471 l0 -2748 31 -7 c41 -8 325 -8 412 1 l67 6 0 198 c0 110 4
199 8 199 4 0 15 -12 24 -27 17 -29 129 -142 183 -186 155 -124 361 -215 571
-251 117 -21 373 -21 488 -1 431 75 800 353 996 750 65 130 101 226 129 338
41 161 46 208 46 467 0 230 -2 266 -23 365 -62 287 -172 518 -350 728 -138
164 -368 324 -556 387 -349 116 -740 101 -1031 -40 -165 -79 -338 -211 -428
-326 -23 -30 -45 -54 -49 -54 -5 0 -8 664 -8 1475 l0 1475 -255 0 -255 0 0
-2749z m1710 -204 c178 -47 329 -135 449 -263 187 -200 283 -463 282 -779 0
-417 -151 -753 -428 -951 -251 -180 -632 -221 -916 -99 -116 50 -181 92 -269
174 -308 288 -431 826 -287 1256 115 343 369 591 684 669 93 23 111 24 255 21
105 -2 156 -8 230 -28z"/>
<path d="M1790 8763 c-79 -8 -286 -56 -358 -82 -297 -110 -555 -342 -710 -639
-73 -141 -114 -249 -147 -387 -80 -343 -77 -678 9 -987 111 -397 388 -729 748
-898 98 -45 257 -94 382 -115 112 -19 375 -19 516 -1 117 16 335 83 440 136
260 130 521 385 655 636 l24 45 -42 25 c-23 13 -107 62 -187 107 -80 46 -157
91 -171 100 -31 20 -35 17 -89 -73 -51 -86 -151 -209 -227 -281 -212 -199
-505 -285 -792 -230 -128 25 -216 55 -311 108 -72 40 -84 49 -166 119 -117
101 -240 297 -283 452 -23 84 -47 263 -38 286 6 15 106 16 1164 16 l1158 -1 3
138 c5 213 -25 402 -95 603 -208 594 -700 937 -1333 928 -63 0 -131 -3 -150
-5z m366 -488 c305 -76 555 -316 650 -623 14 -45 24 -92 22 -105 l-3 -22 -874
-3 c-481 -1 -878 1 -883 6 -11 11 27 141 64 220 191 401 629 627 1024 527z"/>
<path d="M6358 8755 c-729 -111 -1209 -739 -1208 -1577 1 -342 98 -665 288
-953 61 -92 268 -299 358 -357 164 -107 349 -181 534 -214 102 -18 346 -20
456 -4 44 6 124 25 179 42 216 65 367 157 528 319 59 60 109 109 112 109 3 0
6 -91 7 -202 l3 -203 250 0 250 0 3 1488 2 1487 -255 0 -255 0 0 -204 c0 -113
-4 -207 -9 -210 -5 -3 -28 19 -51 49 -42 54 -158 158 -255 227 -108 77 -285
153 -442 189 -114 26 -370 34 -495 14z m453 -470 c271 -50 489 -185 624 -385
138 -207 198 -411 197 -680 -1 -357 -114 -657 -324 -856 -88 -83 -140 -120
-228 -162 -141 -66 -270 -95 -430 -95 -308 -1 -565 126 -745 368 -162 218
-246 513 -232 813 13 280 118 532 301 729 74 80 204 171 300 211 160 67 365
88 537 57z"/>
<path d="M13712 8759 c-516 -60 -975 -385 -1206 -854 -70 -140 -103 -236 -138
-397 -19 -88 -22 -133 -22 -313 0 -190 2 -222 26 -331 43 -195 112 -364 212
-519 204 -313 514 -542 873 -646 155 -45 257 -59 430 -60 186 0 292 13 448 58
315 90 585 266 784 512 192 238 294 485 337 820 16 116 16 151 6 275 -12 143
-46 312 -83 421 -36 104 -136 299 -201 390 -84 117 -251 284 -368 368 -310
220 -712 321 -1098 276z m458 -494 c183 -49 354 -149 475 -277 87 -92 93 -99
147 -189 222 -369 219 -850 -8 -1217 -55 -88 -211 -250 -295 -305 -284 -187
-663 -225 -983 -97 -292 116 -515 364 -610 681 -63 207 -60 495 6 699 25 80
93 220 143 294 138 208 377 369 625 420 115 24 126 25 270 21 105 -3 156 -10
230 -30z"/>
<path d="M17090 8752 c-41 -10 -105 -33 -142 -52 -80 -40 -200 -147 -283 -254
-32 -42 -63 -76 -67 -76 -4 0 -8 72 -8 160 l0 160 -255 0 -255 0 2 -1487 3
-1488 250 3 250 2 6 888 c6 929 9 993 53 1172 51 206 125 340 237 426 84 64
158 87 284 88 98 1 102 0 173 -38 41 -22 87 -53 103 -69 17 -16 32 -28 34 -25
4 4 15 25 155 293 40 77 77 145 82 152 5 7 7 17 3 23 -11 18 -120 69 -218 102
-119 40 -287 48 -407 20z"/>
<path d="M19155 8756 c-341 -49 -611 -191 -829 -434 -257 -287 -395 -679 -396
-1127 -1 -455 152 -857 439 -1152 202 -208 486 -354 766 -392 103 -15 341 -15
436 -1 282 43 577 204 743 407 28 33 56 60 61 59 6 -2 12 -82 15 -202 l5 -199
245 4 c135 2 247 7 250 12 3 5 4 664 3 1466 -2 802 -3 1466 -3 1476 0 16 -18
17 -250 17 l-250 0 -2 -172 c0 -95 0 -180 0 -188 1 -8 -1 -25 -3 -37 -5 -20
-18 -9 -118 91 -190 193 -377 296 -642 358 -114 26 -341 33 -470 14z m463
-476 c411 -83 685 -373 771 -814 36 -183 26 -439 -24 -615 -108 -379 -348
-628 -690 -716 -258 -66 -540 -24 -755 113 -71 45 -191 161 -245 237 -93 131
-165 298 -202 475 -27 131 -25 425 5 541 105 419 380 702 757 783 103 21 268
20 383 -4z"/>
<path d="M12540 4775 c-171 -39 -324 -163 -376 -307 -42 -115 -46 -176 -50
-688 -3 -272 -4 -503 -4 -512 0 -16 -11 -18 -90 -18 l-90 0 0 -160 0 -160 90
0 90 0 0 -824 c0 -742 2 -824 16 -830 21 -8 253 -8 293 0 l31 7 0 823 0 824
43 1 c23 0 137 1 252 2 l210 2 3 135 c1 74 0 145 -3 157 -5 23 -6 23 -253 25
l-247 3 0 470 c1 423 3 477 19 538 37 138 103 187 251 187 47 0 104 -6 127
-14 24 -8 57 -16 73 -18 l30 -3 0 165 0 164 -50 19 c-68 26 -274 33 -365 12z"/>
<path d="M13323 3947 c-3 -5 -3 -162 -2 -350 l4 -342 -102 -3 -101 -3 -7 -62
c-3 -34 -4 -105 -2 -157 l5 -95 101 -3 101 -3 1 -27 c0 -15 1 -387 2 -827 l2
-800 168 -3 167 -2 0 824 c0 649 3 827 13 833 6 4 86 8 177 9 l165 1 3 156 3
157 -178 2 -178 3 -3 351 -2 350 -166 0 c-91 -1 -168 -5 -171 -9z"/>
<path d="M15651 3368 c-42 -107 -78 -196 -135 -333 -37 -88 -84 -203 -106
-255 -21 -52 -95 -230 -164 -395 -68 -165 -136 -331 -152 -370 -15 -38 -31
-74 -35 -79 -5 -6 -17 10 -28 35 -10 24 -99 224 -196 444 -97 220 -217 495
-267 610 -50 116 -95 213 -102 217 -19 13 -376 10 -376 -3 0 -6 14 -41 31 -77
17 -37 107 -231 199 -432 92 -201 238 -518 325 -705 87 -187 188 -407 225
-490 37 -82 96 -208 130 -280 l61 -130 38 100 c21 55 52 132 68 170 16 39 69
165 117 280 48 116 103 248 123 295 19 47 53 128 75 180 22 52 48 115 59 140
10 25 41 100 68 168 26 68 52 123 57 123 5 0 18 -21 28 -48 11 -26 105 -253
209 -503 104 -250 224 -540 267 -645 114 -278 108 -269 130 -213 7 18 54 123
105 233 51 110 180 387 285 615 106 228 210 453 232 500 22 47 82 175 133 285
51 110 115 249 144 308 28 60 51 115 51 123 0 12 -30 14 -187 12 l-188 -3 -23
-45 c-12 -25 -49 -106 -81 -180 -33 -74 -108 -247 -169 -385 -61 -137 -143
-324 -182 -415 -118 -268 -128 -290 -138 -290 -6 0 -13 12 -17 27 -3 15 -64
164 -134 332 -71 169 -154 369 -186 446 -31 77 -75 183 -98 235 -69 164 -93
222 -132 323 -21 53 -42 97 -47 97 -5 0 -12 -10 -17 -22z"/>
<path d="M8283 3280 c-91 -24 -132 -45 -217 -113 -111 -88 -173 -197 -196
-344 -13 -78 -5 -189 18 -248 28 -74 99 -169 159 -214 58 -44 223 -128 380
-194 181 -76 278 -151 308 -236 21 -61 19 -166 -4 -217 -29 -63 -89 -124 -151
-152 -47 -22 -69 -25 -150 -25 -86 0 -102 3 -162 32 -80 38 -139 99 -192 200
-20 39 -43 71 -49 71 -7 0 -60 -20 -117 -44 -58 -24 -122 -51 -142 -59 l-37
-16 25 -62 c39 -97 89 -168 172 -246 133 -125 272 -183 462 -190 138 -6 245
15 367 73 95 45 221 166 270 259 93 177 98 414 12 575 -70 131 -182 210 -469
330 -69 29 -156 68 -195 87 -136 67 -212 175 -184 260 40 122 151 195 269 178
83 -13 152 -62 208 -149 14 -23 27 -43 28 -45 4 -5 268 131 276 143 9 13 -42
105 -90 163 -54 67 -161 140 -252 173 -69 26 -94 30 -178 29 -61 0 -123 -7
-169 -19z"/>
<path d="M10291 3279 c-394 -85 -703 -393 -791 -789 -69 -308 -7 -608 177
-855 77 -103 113 -141 195 -203 282 -212 653 -270 989 -153 481 168 753 632
674 1153 -34 225 -139 425 -311 589 -124 118 -258 194 -429 245 -77 22 -113
27 -250 30 -134 3 -176 0 -254 -17z m397 -310 c63 -14 198 -83 262 -135 114
-93 202 -237 241 -393 18 -71 20 -104 16 -205 -9 -221 -70 -369 -210 -508 -79
-78 -151 -121 -264 -161 -81 -28 -99 -30 -218 -30 -208 1 -328 46 -475 180
-138 126 -210 287 -226 498 -27 376 240 721 590 765 77 9 215 4 284 -11z"/>
<path d="M18290 3293 c-250 -30 -515 -213 -647 -448 -137 -245 -184 -555 -127
-835 78 -380 337 -668 684 -762 120 -32 359 -33 470 -1 156 43 255 100 375
215 40 37 76 68 80 68 4 0 5 -53 4 -118 -2 -64 0 -123 4 -130 6 -9 51 -12 168
-12 l159 0 2 970 c1 534 2 978 2 988 1 16 -13 17 -169 17 l-170 0 4 -127 c2
-96 0 -128 -9 -128 -7 0 -49 35 -95 78 -121 114 -219 167 -389 211 -77 20
-237 26 -346 14z m360 -324 c25 -5 86 -30 135 -54 106 -52 189 -131 254 -240
154 -259 132 -657 -49 -900 -78 -104 -167 -167 -298 -211 -65 -22 -96 -27
-197 -27 -183 -1 -299 41 -420 154 -233 218 -303 624 -160 925 96 200 277 341
470 365 68 8 197 2 265 -12z"/>
<path d="M20773 3279 c-71 -22 -167 -93 -225 -167 -51 -64 -64 -62 -60 13 1
33 0 75 -3 93 l-6 32 -167 -2 -167 -3 0 -985 0 -985 166 -3 167 -2 6 43 c4 24
6 302 6 618 -1 340 3 596 9 629 20 112 33 157 66 225 61 124 131 181 244 196
85 12 123 3 205 -46 33 -19 60 -34 61 -33 2 2 37 72 79 155 l76 153 -58 29
c-31 16 -81 36 -111 45 -76 22 -209 20 -288 -5z"/>
<path d="M22203 3279 c-216 -45 -387 -152 -513 -321 -152 -203 -224 -437 -223
-723 1 -493 256 -856 689 -981 131 -38 339 -44 483 -14 210 43 365 124 507
265 91 90 197 236 192 263 -2 8 -66 50 -142 94 -135 77 -155 82 -156 45 0 -9
-71 -108 -113 -157 -94 -109 -243 -192 -377 -210 -140 -19 -256 -1 -386 61
-191 90 -334 309 -346 529 l-3 55 775 5 775 5 -2 103 c-6 279 -92 524 -249
705 -82 95 -154 150 -268 206 -179 87 -431 115 -643 70z m400 -320 c166 -55
302 -191 373 -371 13 -34 24 -72 24 -85 l0 -23 -582 2 -583 3 3 30 c1 17 23
71 47 121 86 177 258 311 438 344 74 13 208 3 280 -21z"/>
</g>
</svg>
